<svg width="234" height="60" viewBox="0 0 234 60" fill="none" xmlns="http://www.w3.org/2000/svg">
<g clip-path="url(#clip0_8_2037)">
<path d="M33.9924 4.79393L34.1638 13.6491V33.9874L33.9924 42.8426C33.9924 43.4139 33.5353 43.8138 33.0212 43.8138H29.5934C29.0221 43.8138 28.6222 43.4139 28.6222 42.8426L28.4508 33.9874V19.1336L20.1098 35.3014C19.8241 35.8727 19.2528 36.2155 18.6815 36.2155H15.7108C15.0823 36.2155 14.5682 35.8727 14.2825 35.3014L5.71301 18.6765V33.9874L5.54162 42.8426C5.54162 43.4139 5.08458 43.8138 4.57041 43.8138H1.1426C0.628431 43.8138 0.17139 43.4139 0.17139 42.8426L0 33.9874V13.6491L0.17139 4.79393C0.17139 4.27976 0.628431 3.82272 1.1426 3.82272H4.57041C4.91319 3.82272 5.3131 3.99411 5.48449 4.45115L17.1961 29.874L28.6793 4.45115C28.8507 3.99411 29.0792 3.82272 29.5934 3.82272H33.0212C33.5353 3.82272 33.9924 4.27976 33.9924 4.79393Z" fill="#EA5557"/>
<path d="M68.499 42.6712C68.499 43.2996 67.9848 43.8138 67.2992 43.8138H64.2714C63.7001 43.8138 63.1859 43.2996 63.1288 42.6712L63.0716 40.1575C63.0716 39.9861 62.9002 39.9289 62.786 40.0432C61.2435 42.157 57.5871 43.8138 54.6164 43.8138C46.7896 43.8138 40.5052 37.5295 40.5052 29.7026C40.5052 21.8758 46.7896 15.5915 54.6164 15.5915C62.4432 15.5915 68.2705 21.533 68.6132 29.0171C69.0131 36.5011 68.499 42.6712 68.499 42.6712ZM62.9002 30.7881C63.6429 25.3036 59.0154 20.6761 53.4738 21.3617C49.7603 21.8758 46.7324 24.8466 46.2754 28.6172C45.5898 34.1017 50.2174 38.7292 55.7018 38.0436C59.4153 37.5866 62.4432 34.5587 62.9002 30.7881Z" fill="#EA5557"/>
<path d="M92.2603 20.9617L90.1465 22.9042C89.7466 23.1898 89.2324 23.1327 88.8896 22.847C85.1762 20.1619 80.8914 22.39 80.8914 26.5034L80.8343 42.614C80.8343 43.2996 80.3201 43.8138 79.6345 43.8138H76.778C76.0925 43.8138 75.5783 43.2996 75.5783 42.614L75.864 23.4183C75.864 20.4476 75.3498 18.9051 75.1784 17.5911C75.0641 17.0769 75.5212 16.5627 76.0925 16.5627L79.7488 15.9343C80.1487 15.9343 80.5486 16.2199 80.72 16.6199C80.8914 17.134 80.8914 17.2483 80.8914 17.2483C84.662 15.4773 89.2324 16.2771 92.3174 19.4764C92.7173 19.9334 92.7173 20.5618 92.2603 20.9617Z" fill="#EA5557"/>
<path d="M180.812 20.9617L178.698 22.9042C178.298 23.1898 177.784 23.1327 177.441 22.847C173.728 20.1619 169.443 22.39 169.443 26.5034L169.386 42.614C169.386 43.2996 168.872 43.8138 168.186 43.8138H165.33C164.644 43.8138 164.13 43.2996 164.13 42.614L164.416 23.4183C164.416 20.4476 163.901 18.9051 163.73 17.5911C163.616 17.0769 164.073 16.5627 164.644 16.5627L168.3 15.9343C168.7 15.9343 169.1 16.2199 169.272 16.6199C169.443 17.134 169.443 17.2483 169.443 17.2483C173.214 15.4773 177.784 16.2771 180.869 19.4764C181.269 19.9334 181.269 20.5618 180.812 20.9617Z" fill="#EA5557"/>
<path d="M119.111 41.0144C121.739 42.7854 123.225 45.4705 123.225 48.8983C123.225 59.0104 108.142 62.0954 99.4587 56.8965C99.0017 56.5538 98.8874 55.9253 99.2302 55.4683L100.887 53.126C101.173 52.7832 101.687 52.6118 102.087 52.8403C107.914 55.5254 117.969 53.9829 117.969 48.8983C117.969 44.2708 112.027 43.8138 109.456 43.8138C101.744 43.7566 95.4596 37.4723 95.4596 29.7026C95.4596 21.933 102.201 15.1916 110.313 15.6486C117.74 16.0486 123.625 22.2757 123.682 29.7026C123.682 33.8731 121.854 37.5866 119.054 40.1574C118.769 40.386 118.826 40.7859 119.111 41.0144ZM108.485 38.1579C113.97 38.8435 118.654 34.1588 117.969 28.6172C117.512 24.8466 114.427 21.8187 110.656 21.3045C105.115 20.619 100.43 25.3036 101.173 30.8452C101.63 34.6158 104.658 37.6437 108.485 38.1579Z" fill="#EA5557"/>
<path d="M157.446 42.6712C157.446 43.2996 156.932 43.8138 156.246 43.8138H153.218C152.647 43.8138 152.133 43.2996 152.076 42.6712L152.018 40.1575C152.018 39.9861 151.847 39.9289 151.733 40.0432C150.19 42.157 146.534 43.8138 143.563 43.8138C135.736 43.8138 129.452 37.5295 129.452 29.7026C129.452 21.8758 135.736 15.5915 143.563 15.5915C151.39 15.5915 157.217 21.533 157.56 29.0171C157.96 36.5011 157.446 42.6712 157.446 42.6712ZM151.847 30.7881C152.59 25.3036 147.962 20.6761 142.421 21.3617C138.707 21.8758 135.679 24.8466 135.222 28.6172C134.537 34.1017 139.164 38.7292 144.649 38.0436C148.362 37.5866 151.39 34.5587 151.847 30.7881Z" fill="#EA5557"/>
<path d="M211.548 28.7886C211.491 30.3882 209.777 31.6451 208.177 31.6451H190.695C190.353 31.6451 190.124 31.9307 190.181 32.2735C191.267 36.6725 194.923 38.3293 198.865 38.3293C201.093 38.3293 203.778 37.2438 205.606 35.5871C206.006 35.1871 206.692 35.1871 207.092 35.5871L209.377 37.8151C209.834 38.215 209.834 38.9577 209.377 39.3576C206.006 42.6712 202.35 43.8138 198.751 43.8138C189.896 43.8138 183.326 36.5011 184.525 27.4746C185.554 19.5906 192.524 14.906 200.408 15.7058C206.806 16.3913 211.605 22.5614 211.605 27.4746C211.605 27.4746 211.605 28.0459 211.548 28.7886ZM190.638 26.7319C190.524 27.0747 190.753 27.4746 191.152 27.4746H205.835C206.235 27.4746 206.463 27.0747 206.349 26.7319C205.492 23.8183 203.435 20.5047 198.865 20.5047C194.58 20.5047 191.438 23.5326 190.638 26.7319Z" fill="#EA5557"/>
<path d="M234 17.0769V20.4476C234 21.0189 233.543 21.4188 233.029 21.4759L227.373 21.6473V33.6446L227.144 42.8426C227.144 43.3567 226.687 43.8138 226.173 43.8138H222.86C222.288 43.8138 221.831 43.3567 221.831 42.8426L221.66 33.6446V21.6473L216.004 21.4759C215.433 21.4188 215.033 21.0189 215.033 20.5047V17.0769C215.033 16.5056 215.433 16.1057 216.004 16.0486L221.66 15.8772V11.0211L221.831 1.8803C221.831 1.309 222.288 0.909088 222.86 0.909088H226.173C226.687 0.909088 227.144 1.309 227.144 1.8803L227.373 11.0211V15.8772L233.029 16.0486C233.543 16.1057 234 16.5056 234 17.0769Z" fill="#EA5557"/>
</g>
<defs>
<clipPath id="clip0_8_2037">
<rect width="234" height="58.4726" fill="white" transform="translate(0 0.909088)"/>
</clipPath>
</defs>
</svg>
